<svg version="1.1" id="op-logo" xmlns="http://www.w3.org/2000/svg" xmlns:xlink="http://www.w3.org/1999/xlink" x="0px" y="0px"viewBox="0 0 205.667 46" enable-background="new 0 0 205.667 46" xml:space="preserve"> <g> <path d="M45.083,9.112c0,1.297-1.061,2.359-2.358,2.359H3.609c-1.297,0-2.359-1.062-2.359-2.359V7.54 c0-1.297,1.062-2.359,2.359-2.359h39.116c1.298,0,2.358,1.062,2.358,2.359V9.112z"/> <path d="M45.083,38.793c0,1.298-1.061,2.357-2.358,2.357H3.609c-1.297,0-2.359-1.061-2.359-2.357v-1.572 c0-1.297,1.062-2.357,2.359-2.357h39.116c1.298,0,2.358,1.062,2.358,2.357V38.793z"/> <path d="M23.658,29.439c0,0.929-0.759,1.688-1.687,1.688H2.937c-0.928,0-1.687-0.759-1.687-1.688v-2.916 c0-0.928,0.759-1.688,1.687-1.688h19.035c0.928,0,1.687,0.76,1.687,1.688L23.658,29.439L23.658,29.439z"/> <path d="M45.084,29.695c0,0.787-0.644,1.432-1.431,1.432H30.396c-0.786,0-1.43-0.645-1.43-1.432v-3.428 c0-0.787,0.644-1.432,1.43-1.432h13.258c0.787,0,1.431,0.645,1.431,1.432L45.084,29.695L45.084,29.695z"/> <path d="M37.811,19.193c0,1.05-0.859,1.909-1.909,1.909h-24.88c-1.05,0-1.909-0.859-1.909-1.909V16.72 c0-1.049,0.859-1.908,1.909-1.908h24.88c1.05,0,1.909,0.859,1.909,1.908V19.193z"/> </g> <g> <path d="M49.036,24.261c0-7.561,4.24-13.32,12.648-13.32c8.374,0,11.977,5.759,11.977,12.861 c0,8.302-4.063,13.603-12.471,13.603C52.64,37.404,49.036,31.927,49.036,24.261z M68.044,24.12c0-6.113-2.438-8.727-6.43-8.727 c-4.062,0-6.926,2.685-6.926,8.759c0,6.359,2.651,8.906,6.713,8.906C65.358,33.059,68.044,30.621,68.044,24.12z"/> <path d="M87.823,36.979V25.566c0-1.694-0.105-3.107-1.873-3.107c-1.307,0-2.932,0.741-3.674,1.309v9.467 c0,0.565,0.035,0.637,0.564,0.707l1.695,0.246v2.791h-9.751v-2.826l1.59-0.211c0.494-0.07,0.565-0.176,0.565-0.707V22.847 c0-0.388-0.105-0.635-0.459-0.742l-1.908-0.671l0.425-2.863h6.183l0.282,1.837l0.142,0.071c1.768-1.307,3.815-2.261,6.219-2.261 c3.852,0,5.335,2.12,5.335,6.007v9.01c0,0.564,0.036,0.636,0.565,0.707l1.767,0.246v2.791H87.823L87.823,36.979z"/> <path d="M112.373,35.602c-2.19,1.061-4.593,1.803-7.241,1.803c-6.82,0-9.15-4.239-9.15-9.752 c0-6.395,3.921-9.434,8.761-9.434c4.665,0,7.772,2.438,7.772,8.551c0,0.426-0.035,1.66-0.069,2.366h-10.812 c0.176,2.509,1.271,4.169,4.168,4.169c1.379,0,2.861-0.318,5.266-1.201L112.373,35.602z M107.285,25.78 c-0.035-2.968-1.201-3.745-2.647-3.745c-1.521,0-2.758,0.848-2.969,3.745H107.285z"/> <path d="M113.466,44.469v-2.826l1.413-0.211c0.494-0.07,0.636-0.213,0.636-0.742V22.847 c0-0.388-0.105-0.635-0.459-0.742l-1.873-0.671l0.39-2.863h6.218l0.316,1.802l0.179,0.071c1.696-1.377,3.992-2.226,6.005-2.226 c3.958,0,6.784,2.473,6.784,9.046c0,4.239-1.448,10.141-7.278,10.141c-1.836,0-3.566-0.603-5.052-1.803v5.051 c0,0.565,0.036,0.672,0.565,0.707l3.674,0.317v2.791L113.466,44.469L113.466,44.469z M120.813,31.927 c0.777,0.671,2.015,1.345,3.32,1.345c2.368,0,3.356-2.263,3.356-5.726c0-3.64-1.235-5.123-3.003-5.123 c-1.484,0-2.896,0.742-3.676,1.272v8.231H120.813z"/> <path d="M145.681,36.979l-0.353-1.908l-0.177-0.035c-1.344,1.309-3.109,2.369-5.936,2.369 c-4.453,0-5.158-3.04-5.158-5.229c0-3.532,2.189-5.157,6.606-5.44l4.062-0.283v-1.942c0-1.661-0.176-2.792-2.367-2.792 c-1.694,0-2.578,0.247-2.578,2.368l-4.98-0.425c0-4.769,4.344-5.44,7.596-5.44c5.369,0,7.523,1.449,7.523,6.396v8.586 c0,0.566,0.036,0.635,0.566,0.707l1.695,0.281v2.791h-6.5V36.979z M144.728,29.384l-2.402,0.177 c-2.084,0.142-2.827,0.672-2.827,2.084c0,1.414,0.849,1.943,2.015,1.943c1.201,0,2.402-0.67,3.215-1.271V29.384L144.728,29.384z"/> <path d="M167.899,21.822c0.638,0.812,1.309,1.943,1.309,3.568c0,3.92-3.074,6.217-7.525,6.217 c-1.131,0-2.153-0.14-2.791-0.316l-1.164,1.873l3.461,0.212c6.111,0.39,9.717,0.565,9.717,5.265c0,4.062-3.569,6.358-9.717,6.358 c-6.396,0-8.832-1.626-8.832-4.415c0-1.59,0.707-2.438,1.943-3.605c-1.166-0.494-1.555-1.377-1.555-2.33 c0-0.777,0.389-1.483,1.023-2.155c0.637-0.671,1.343-1.343,2.189-2.119c-1.73-0.849-3.038-2.685-3.038-5.3 c0-4.063,2.687-6.854,8.093-6.854c1.518,0,2.438,0.142,3.248,0.353h6.891v3.004L167.899,21.822z M157.443,37.934 c-0.459,0.566-0.919,1.166-0.919,1.873c0,1.412,1.803,1.836,4.273,1.836c2.051,0,4.84-0.142,4.84-2.049 c0-1.13-1.341-1.201-3.037-1.307L157.443,37.934z M161.329,21.716c-1.943,0-3.393,0.955-3.393,3.251 c0,1.729,0.955,2.932,3.287,2.932c1.979,0,3.319-1.166,3.319-3.002C164.544,22.812,163.343,21.716,161.329,21.716z"/> <path d="M187.646,35.602c-2.189,1.061-4.594,1.803-7.242,1.803c-6.818,0-9.15-4.239-9.15-9.752 c0-6.395,3.922-9.434,8.762-9.434c4.664,0,7.772,2.438,7.772,8.551c0,0.426-0.035,1.66-0.069,2.366h-10.812 c0.177,2.509,1.271,4.169,4.169,4.169c1.378,0,2.86-0.318,5.265-1.201L187.646,35.602z M182.558,25.78 c-0.035-2.968-1.201-3.745-2.648-3.745c-1.52,0-2.757,0.848-2.969,3.745H182.558z"/> <path d="M188.878,36.979v-2.859l1.59-0.212c0.495-0.072,0.566-0.177,0.566-0.707V22.847 c0-0.388-0.105-0.635-0.46-0.742l-1.907-0.671l0.389-2.863h6.219l0.424,2.827h0.212c1.166-1.801,2.721-3.18,4.981-3.18 c0.812,0,2.438,0.142,3.074,0.318v6.431l-4.24-0.142l-0.354-1.873c-0.07-0.317-0.178-0.388-0.46-0.388 c-0.918,0-2.015,0.778-2.544,1.237v9.362c0,0.565,0.035,0.67,0.564,0.706l3.498,0.281v2.826h-11.553V36.979z"/> </g> </svg>