<?xml version="1.0" encoding="utf-8"?>
<!-- Generator: Adobe Illustrator 16.0.0, SVG Export Plug-In . SVG Version: 6.00 Build 0)  -->
<!DOCTYPE svg PUBLIC "-//W3C//DTD SVG 1.1//EN" "http://www.w3.org/Graphics/SVG/1.1/DTD/svg11.dtd">
<svg version="1.1" id="Layer_1" xmlns="http://www.w3.org/2000/svg" xmlns:xlink="http://www.w3.org/1999/xlink" x="0px" y="0px"
	 width="46px" height="46px" viewBox="0 0 46 46" enable-background="new 0 0 46 46" xml:space="preserve">
<path fill="#f44336" d="M23.658,29.44c0,0.928-0.759,1.687-1.687,1.687H2.937c-0.928,0-1.687-0.759-1.687-1.687v-2.916
	c0-0.928,0.759-1.688,1.687-1.688h19.035c0.928,0,1.687,0.76,1.687,1.688V29.44z"/>
<path fill="#f44336" d="M45.084,29.44c0,0.928-0.759,1.687-1.687,1.687H30.652c-0.928,0-1.687-0.759-1.687-1.687v-2.916
	c0-0.928,0.759-1.688,1.687-1.688h12.745c0.928,0,1.687,0.76,1.687,1.688V29.44z"/>
<path fill="#f44336" d="M45.084,39.465c0,0.928-0.759,1.687-1.687,1.687H2.937c-0.928,0-1.687-0.759-1.687-1.687v-2.916
	c0-0.928,0.759-1.688,1.687-1.688h40.461c0.928,0,1.687,0.76,1.687,1.688V39.465z"/>
<path fill="#f44336" d="M45.084,9.785c0,0.928-0.759,1.687-1.687,1.687H2.937c-0.928,0-1.687-0.759-1.687-1.687V6.869
	c0-0.928,0.759-1.688,1.687-1.688h40.461c0.928,0,1.687,0.76,1.687,1.688V9.785z"/>
<path fill="#f44336" d="M37.811,19.416c0,0.928-0.759,1.687-1.687,1.687H10.799c-0.928,0-1.687-0.759-1.687-1.687V16.5
	c0-0.928,0.759-1.688,1.687-1.688h25.325c0.928,0,1.687,0.76,1.687,1.688V19.416z"/>
</svg>
